<?xml version="1.0" encoding="UTF-8"?>
<svg xmlns="http://www.w3.org/2000/svg" version="1.1" viewBox="0 0 434.43 158.54">
  <!-- Generator: Adobe Illustrator 30.1.0, SVG Export Plug-In . SVG Version: 2.1.1 Build 136)  -->
  <defs>
    <style>
      .st0 {
        fill: none;
        stroke: #29a9e0;
        stroke-miterlimit: 10;
        stroke-width: .75px;
      }

      .st1 {
        fill: #0f2345;
      }

      .st2 {
        display: none;
      }
    </style>
  </defs>
  <g id="Layer_1">
    <g>
      <g>
        <path class="st1" d="M94.36,124.07v-8.62c0-14.96-8.35-22.45-23.08-22.45-4.32,0-9.49,1.24-13.56,3.73l.46.76c3.86-2.43,8.88-3.64,13.1-3.64,6.61,0,10.89,4.38,10.89,13.13v2.12c-2.95-1.41-6-2.12-9.15-2.12-6.51,0-11.69,1.54-15.55,4.62-3.86,3.08-4.82,6.62-4.82,10.63s.97,7.62,4.85,10.84c3.89,3.22,9.06,4.83,15.51,4.83,3.71,0,6.86-1.04,9.45-3.13.1,0,1.1,1.56,2.74,2.71,0,0,9.01-4.79,9.15-13.4ZM73.02,137.05c-3.2,0-5.59-1.04-7.17-3.13-1.32-1.81-1.98-5.7-1.98-11.69,0-4.91.41-8.13,1.22-9.66,1.52-3.16,4.17-4.74,7.93-4.74,3.2,0,6.25.73,9.15,2.2v13.72c0,3.22.05,6.58.15,10.08-2.34,2.15-5.44,3.22-9.3,3.22Z"/>
        <path class="st1" d="M331.87,131.12v-22.02c0-10.45-6.61-15.67-19.82-15.67-2.54,0-5.18,1.02-7.93,3.05-.1,0-.47-.44-1.11-1.31-.64-.87-1.18-1.31-1.64-1.31h-15.25v.85c4.07,0,6.1,1.98,6.1,5.93v24.67c.16,2.01.8,3.8,1.68,5.36,2.6,4.6,7.31,7.19,12.19,7.22l4.43.02v-.85c-4.07,0-6.1-1.98-6.1-5.93v-30.49c0-1.13-.05-2.2-.15-3.22,2.54-2.09,5.13-3.13,7.78-3.13,5.08,0,7.62,5.22,7.62,15.67v14.13c0,.08,0,.14,0,.22,0,2.63.82,4.91,1.97,6.8,2.64,4.34,7.2,6.76,11.92,6.78l4.4.02v-.85c-4.07,0-6.1-1.98-6.1-5.93Z"/>
        <g>
          <path class="st1" d="M154.3,86.37c1.68,0,3.11-.6,4.31-1.79,1.19-1.19,1.79-2.63,1.79-4.31s-.6-3.11-1.79-4.31c-1.19-1.2-2.63-1.79-4.31-1.79s-3.11.6-4.31,1.79c-1.19,1.19-1.79,2.63-1.79,4.31s.6,3.11,1.79,4.31c1.19,1.19,2.63,1.79,4.31,1.79Z"/>
          <path class="st1" d="M160.39,131.1v-30.49c0-4.52-1.02-6.78-3.05-6.78h-15.25v.85c4.07,0,6.1,1.98,6.1,5.93v24.99c.2,1.96.87,3.71,1.77,5.23,2.7,4.59,7.52,7.09,12.46,7.07l4.07-.02v-.85c-4.07,0-6.1-1.98-6.1-5.93Z"/>
        </g>
        <g>
          <path class="st1" d="M223.47,86.37c1.68,0,3.11-.6,4.31-1.79,1.19-1.19,1.79-2.63,1.79-4.31s-.6-3.11-1.79-4.31c-1.19-1.2-2.63-1.79-4.31-1.79s-3.11.6-4.31,1.79c-1.19,1.19-1.79,2.63-1.79,4.31s.6,3.11,1.79,4.31c1.19,1.19,2.63,1.79,4.31,1.79Z"/>
          <path class="st1" d="M229.57,131.1v-30.49c0-4.52-1.02-6.78-3.05-6.78h-15.25v.85c4.07,0,6.1,1.98,6.1,5.93v24.99c.2,1.96.87,3.71,1.77,5.23,2.7,4.59,7.52,7.09,12.46,7.07l4.07-.02v-.85c-4.07,0-6.1-1.98-6.1-5.93Z"/>
        </g>
        <path class="st1" d="M134.77,95.2c-2.13-1.47-4.57-2.2-7.32-2.2-3.66,0-6.51.54-8.54,1.61-1.58.85-3.35,2.29-5.34,4.32l-.46-1.44c-.25-.85-.66-1.75-1.22-2.71-.46-.9-.91-1.35-1.37-1.35h-15.25v.85c4.07,0,6.1,1.98,6.1,5.93v23.72c.01,2.62.84,4.89,1.99,6.78,2.67,4.39,7.29,6.81,12.06,6.79l4.25-.02v-.85c-4.07,0-6.1-1.98-6.1-5.93v-30.41c2.95-3.73,6.15-5.59,9.6-5.59,1.93,0,2.9,1.13,2.9,3.39l-.3,3.39c0,1.92.61,3.53,1.83,4.83,1.22,1.3,2.64,1.95,4.27,1.95,1.73,0,3.18-.68,4.34-2.03,1.17-1.35,1.75-2.93,1.75-4.74,0-2.71-1.07-4.8-3.2-6.27Z"/>
        <path class="st1" d="M203.54,93.84h.87l1.52,11.94h-.76c-.2-2.12-1.5-4.64-3-7.09-.89-1.44-2.67-2.41-4.6-3.39-1.93-.97-4.22-1.46-6.86-1.46-2.39,0-4.28.69-5.68,2.07-1.4,1.38-2.1,2.83-2.1,4.35,0,1.92.58,3.36,1.76,4.31,1.07.9,2.49,1.86,4.28,2.88l11.44,5.91c4.77,2.84,7.15,6.52,7.15,11.06,0,8.98-6.1,13.47-18.3,13.47-1.91,0-3.71-.28-5.41-.85-2.34-.79-4.42-2.01-6.25-3.64-.64-.56-1.27-.85-1.91-.85-1.27,0-1.91,1.71-1.91,4.87h-.76l.31-13.17h.76c0,.85.28,1.92.84,3.22,1.6,3.7,4,6.35,7.2,7.96,2.13,1.07,4.51,1.61,7.13,1.61,5.18,0,7.78-2.15,7.78-6.44,0-3.05-1.52-5.45-4.57-7.2l-10.75-5.42c-2.64-1.33-4.66-2.99-6.06-5-1.3-1.89-1.94-4.09-1.94-6.61,0-4.18,1.56-7.45,4.69-9.83,3.07-2.37,7.18-3.56,12.31-3.56,2.44,0,4.54.37,6.29,1.1,1.63.71,3.11,1.06,4.44,1.06s1.96-.44,2.11-1.31Z"/>
        <path class="st1" d="M40.33,98.97c-3.61-3.98-8.41-5.97-14.41-5.97-2.54,0-5.18,1.02-7.93,3.05-.1,0-.47-.44-1.11-1.31-.64-.87-1.18-1.31-1.64-1.31H0v.85c4.07,0,6.1,1.98,6.1,5.93v45.06c.03,1.09.2,2.11.48,3.08,1.36-1.5,3.41-2.43,5.49-2.63,2.1-.2,4.19-.44,6.23-.27v-10.42c2.54,1.86,5.08,2.79,7.62,2.79,6.05,0,10.86-1.98,14.45-5.93,3.58-3.95,5.37-9.43,5.37-16.43s-1.8-12.49-5.41-16.48ZM32.63,132.13c-1.17,3.22-3.41,4.83-6.71,4.83-2.59,0-5.13-1.02-7.62-3.05v-33.71c0-1.13-.05-2.2-.15-3.22,2.54-2.09,5.13-3.13,7.78-3.13,3.25,0,5.49,1.61,6.71,4.83.61,1.58.91,7.17.91,16.77s-.3,14.88-.91,16.69Z"/>
        <path class="st1" d="M14.69,119.6c-1.71.17-3.42.35-5.14.57,0,0,0,0,0,0-.39.38-.8.74-1.21,1.09,1.56,2,2.03,4.71.3,7.43-.55.87-1.17,1.68-1.82,2.48,1.26,2.5,1.52,5.47.21,8.05-.27.54-.58,1.01-.93,1.43v11.09c0,3.95-2.03,5.93-6.1,5.93v.85l4.15.02c4.74.02,9.35-2.34,12.06-6.66,1.17-1.86,2.02-4.08,2.09-6.64v-25.43c-1.2-.06-2.4-.13-3.6-.21Z"/>
        <path class="st1" d="M260.93,138.32c-6.86,0-12.15-1.95-15.86-5.84-3.66-3.9-5.49-9.43-5.49-16.6s1.85-12.65,5.57-16.6c3.71-3.9,8.97-5.84,15.78-5.84s12.07,1.95,15.78,5.84c3.71,3.95,5.56,9.49,5.56,16.6h-30.49c0,10,.51,15.78,1.52,17.36,1.88,2.82,4.42,4.24,7.62,4.24,3.81,0,7.39-1.04,10.75-3.13,3.35-2.09,6.02-4.83,8-8.22l.61.42c-2.03,3.56-4.78,6.41-8.23,8.56-3.46,2.15-7.17,3.22-11.13,3.22ZM251.78,115.02h18.3c0-8.58-.38-13.78-1.14-15.59-1.42-3.44-4.09-5.17-8-5.17s-6.35,1.44-7.47,4.32c-1.12,2.99-1.68,8.47-1.68,16.43Z"/>
        <g>
          <path class="st1" d="M413.08,138.32c-6.86,0-12.15-1.95-15.86-5.84-3.66-3.9-5.49-9.43-5.49-16.6s1.85-12.65,5.57-16.6c3.71-3.9,8.97-5.84,15.78-5.84s12.07,1.95,15.78,5.84c3.71,3.95,5.56,9.49,5.56,16.6h-30.49c0,10,.51,15.78,1.52,17.36,1.88,2.82,4.42,4.24,7.62,4.24,3.81,0,7.39-1.04,10.75-3.13,3.35-2.09,6.02-4.83,8-8.22l.61.42c-2.03,3.56-4.78,6.41-8.23,8.56-3.46,2.15-7.17,3.22-11.13,3.22ZM403.93,115.02h18.3c0-8.58-.38-13.78-1.14-15.59-1.42-3.44-4.09-5.17-8-5.17s-6.35,1.44-7.47,4.32c-1.12,2.99-1.68,8.47-1.68,16.43Z"/>
          <path class="st1" d="M381.76,131.12v-22.02c0-10.45-6.61-15.67-19.82-15.67-2.54,0-5.18,1.02-7.93,3.05-.1,0-.47-.44-1.11-1.31-.64-.87-1.18-1.31-1.64-1.31h-15.25v.85c4.07,0,6.1,1.98,6.1,5.93v24.67c.16,2.01.8,3.8,1.68,5.36,2.6,4.6,7.31,7.19,12.19,7.22l4.43.02v-.85c-4.07,0-6.1-1.98-6.1-5.93v-30.49c0-1.13-.05-2.2-.15-3.22,2.54-2.09,5.13-3.13,7.78-3.13,5.08,0,7.62,5.22,7.62,15.67v14.13c0,.08,0,.14,0,.22,0,2.63.82,4.91,1.97,6.8,2.64,4.34,7.2,6.76,11.92,6.78l4.4.02v-.85c-4.07,0-6.1-1.98-6.1-5.93Z"/>
        </g>
      </g>
      <g>
        <path class="st1" d="M18.03,22.37c2.5-1.84,5.01-2.75,7.51-2.75,5.91,0,10.64,1.98,14.2,5.93,3.55,3.9,5.33,9.29,5.33,16.19s-1.75,12.3-5.26,16.19c-3.55,3.9-8.31,5.84-14.27,5.84-2.8,0-5.31-.92-7.51-2.75-1.65-1.45-3.2-2.17-4.66-2.17-4.21,0-7.36,4.59-7.36,4.59V6.68C6.01,2.78,4.01.83,0,.83v-.83h15.02c2,0,3,2.23,3,6.68v15.69ZM18.03,59.92c2.45,2,4.96,3,7.51,3,3.25,0,5.46-1.59,6.61-4.76.6-1.78.9-7.26.9-16.44s-.3-14.97-.9-16.53c-1.2-3.17-3.41-4.76-6.61-4.76-2.55,0-5.06,1-7.51,3v36.47Z"/>
        <path class="st1" d="M258.91,63.76c-6.76,0-11.97-1.92-15.62-5.76-3.61-3.84-5.41-9.29-5.41-16.36s1.83-12.46,5.48-16.36c3.65-3.84,8.84-5.76,15.55-5.76s11.89,1.92,15.55,5.76c3.65,3.9,5.48,9.35,5.48,16.36h-30.04c0,9.85.5,15.55,1.5,17.11,1.85,2.78,4.36,4.17,7.51,4.17,3.76,0,7.29-1.03,10.59-3.09,3.3-2.06,5.93-4.76,7.89-8.1l.6.42c-2,3.5-4.71,6.31-8.11,8.43-3.4,2.11-7.06,3.17-10.97,3.17ZM249.89,40.81h18.03c0-8.46-.38-13.58-1.13-15.36-1.4-3.39-4.03-5.09-7.89-5.09s-6.26,1.42-7.36,4.26c-1.1,2.95-1.65,8.35-1.65,16.19Z"/>
        <path class="st1" d="M372.74,63.76c-6.76,0-11.97-1.92-15.62-5.76-3.61-3.84-5.41-9.29-5.41-16.36s1.83-12.46,5.48-16.36c3.65-3.84,8.84-5.76,15.55-5.76s11.89,1.92,15.55,5.76c3.65,3.9,5.48,9.35,5.48,16.36h-30.04c0,9.85.5,15.55,1.5,17.11,1.85,2.78,4.36,4.17,7.51,4.17,3.76,0,7.29-1.03,10.59-3.09,3.3-2.06,5.93-4.76,7.89-8.1l.6.42c-2,3.5-4.71,6.31-8.11,8.43-3.4,2.11-7.06,3.17-10.97,3.17ZM363.73,40.81h18.03c0-8.46-.38-13.58-1.13-15.36-1.4-3.39-4.03-5.09-7.89-5.09s-6.26,1.42-7.36,4.26c-1.1,2.95-1.65,8.35-1.65,16.19Z"/>
        <path class="st1" d="M72.8,63.76c-6.76,0-11.97-1.92-15.62-5.76-3.61-3.84-5.41-9.29-5.41-16.36s1.83-12.46,5.48-16.36c3.65-3.84,8.84-5.76,15.55-5.76s11.89,1.92,15.55,5.76c3.65,3.9,5.48,9.35,5.48,16.36s-1.8,12.52-5.41,16.36c-3.66,3.84-8.86,5.76-15.62,5.76ZM72.8,62.93c3.81,0,6.26-1.47,7.36-4.42,1.1-3,1.65-8.62,1.65-16.86s-.55-13.86-1.65-16.86c-1.1-2.95-3.56-4.42-7.36-4.42-4.31,0-6.93,1.84-7.89,5.51-.75,2.95-1.13,8.21-1.13,15.77s.38,12.82,1.13,15.77c.95,3.67,3.58,5.51,7.89,5.51Z"/>
        <path class="st1" d="M231.3,57.07v-21.7c0-10.29-6.51-15.44-19.53-15.44-2.5,0-5.01.92-7.51,2.75V6.99c0-4.45-1-6.68-3-6.68h-15.02v.83c4.01,0,6.01,1.95,6.01,5.84v43.65c.06,2.52.91,4.72,2.07,6.55,2.7,4.27,7.26,6.59,11.95,6.57l4-.02v-.83c-4.01,0-6.01-1.95-6.01-5.84V23.77c2.45-2,4.96-3,7.51-3,5.01,0,7.51,5.15,7.51,15.44v14.65c.1,2.48.96,4.64,2.12,6.44,2.71,4.21,7.23,6.49,11.88,6.47l4.02-.02v-.83c-4.01,0-6.01-1.95-6.01-5.84Z"/>
        <g>
          <path class="st1" d="M337.19,13c1.65,0,3.07-.59,4.24-1.77,1.18-1.18,1.77-2.59,1.77-4.24s-.59-3.07-1.77-4.24c-1.18-1.18-2.59-1.77-4.24-1.77s-3.07.59-4.24,1.77c-1.18,1.18-1.77,2.59-1.77,4.24s.59,3.07,1.77,4.24c1.18,1.18,2.59,1.77,4.24,1.77Z"/>
          <path class="st1" d="M343.2,57.07v-30.04c0-4.45-1-6.68-3-6.68h-15.02v.83c4.01,0,6.01,1.95,6.01,5.84v24.62c.2,1.93.86,3.65,1.74,5.15,2.66,4.53,7.41,6.99,12.28,6.97l4.01-.02v-.83c-4.01,0-6.01-1.95-6.01-5.84Z"/>
        </g>
        <path class="st1" d="M319.62,22.1c-2.1-1.45-4.51-2.17-7.21-2.17-3.61,0-6.41.53-8.41,1.59-1.55.84-3.3,2.25-5.26,4.26l-.45-1.42c-.25-.83-.65-1.72-1.2-2.67-.45-.89-.9-1.33-1.35-1.33h-15.02v.83c4.01,0,6.01,1.95,6.01,5.84v23.37c.01,2.58.83,4.81,1.96,6.68,2.63,4.33,7.18,6.71,11.88,6.69l4.18-.02v-.83c-4.01,0-6.01-1.95-6.01-5.84v-29.96c2.9-3.67,6.06-5.51,9.46-5.51,1.9,0,2.85,1.11,2.85,3.34l-.3,3.34c0,1.89.6,3.48,1.8,4.76,1.2,1.28,2.6,1.92,4.21,1.92,1.7,0,3.13-.67,4.28-2,1.15-1.33,1.73-2.89,1.73-4.67,0-2.67-1.05-4.73-3.15-6.17Z"/>
        <path class="st1" d="M139.6,50.28v-23.66c0-4.45-1-6.68-3-6.68h-15.02v.83c4.01,0,6.01,1.95,6.01,5.84v30.04c0,1.11.05,2.17.15,3.17-2.5,2.06-5.06,3.09-7.66,3.09-5.01,0-7.51-2.92-7.51-8.76v-27.54c0-4.45-1-6.68-3-6.68h-15.02v.83c4.01,0,6.01,1.95,6.01,5.84v21.7c0,10.29,6.51,15.44,19.53,15.44,2.5,0,5.11-1,7.81-3,.1,0,2.25,2.59,2.7,2.59,0,0,8.79-4.68,9.01-13.06Z"/>
        <path class="st1" d="M185.1,51.74c-2,3.45-4.53,6.18-7.59,8.18-3.05,2-6.43,3-10.14,3s-6.41-1.75-7.81-5.26c-.75-1.84-1.13-7.18-1.13-16.02,0-7.57.38-12.82,1.13-15.77.95-3.67,3.58-5.51,7.89-5.51,1.61,0,7.77,1.09,9.29,4.89-2.09,1.09-3.54,3.44-3.54,6.18,0,3.77,2.75,6.82,6.14,6.82,2.79,0,5.14-2.07,5.89-4.9,0,0,0-.01,0-.02.11-.42.18-.86.22-1.31,0-.08,0-.15.01-.23,0-.12.02-.24.02-.37,0,0,0-.02,0-.03,0-.04,0-.07,0-.11,0-1.05-.21-2.05-.71-3.03-.39-.83-.93-1.55-1.58-2.14-.19-.19-.38-.38-.59-.57-2.13-1.89-4.9-3.46-7.68-4.49-2.78-1.03-5.27-1.54-7.47-1.54-6.71,0-11.89,1.92-15.55,5.76-3.66,3.9-5.48,9.35-5.48,16.36s1.8,12.52,5.41,16.36c3.6,3.84,8.79,5.76,15.55,5.76,3.85,0,7.36-1.04,10.51-3.13,3.15-2.09,5.76-4.91,7.81-8.47l-.6-.42Z"/>
      </g>
    </g>
  </g>
  <g id="ta3je" class="st2">
    <path class="st0" d="M350.89-325.49H-473.99M1498.93-192.27h-134.65M1362.86,397.34h134.65M520.97,531.99h824.88M-491-192.27V397.34M1362.86,397.34V-192.27M503.97-192.27V397.34M367.9-192.27h136.06M-491-193.68H367.9M367.9,397.34V-192.27M503.97,397.34h-136.06M1362.86,398.76H503.97"/>
  </g>
</svg>